<svg width="168" height="25" viewBox="0 0 168 25" fill="none" xmlns="http://www.w3.org/2000/svg">
<g filter="url(#filter0_i_1_5)">
<path d="M12.72 24L6.288 16.032H3.472L11.312 6.912H14.544L7.44 15.136L7.664 13.504L16.272 24H12.72ZM0.944 24V0.639999H4.016V24H0.944ZM22.7483 24L16.9243 6.912H20.1243L25.8203 24H22.7483ZM23.5163 24V21.568H27.2283V24H23.5163ZM24.9883 24L29.9483 6.912H32.9563L27.9003 24H24.9883ZM47.1863 24V18.88H46.6743V12.96C46.6743 11.7867 46.3649 10.9013 45.7463 10.304C45.1489 9.70667 44.2636 9.408 43.0903 9.408C42.4289 9.408 41.7463 9.41867 41.0423 9.44C40.3383 9.46133 39.6663 9.48267 39.0263 9.504C38.3863 9.52533 37.8316 9.55733 37.3623 9.6V6.912C37.8316 6.86933 38.3223 6.83733 38.8343 6.816C39.3676 6.77333 39.9116 6.752 40.4663 6.752C41.0209 6.73067 41.5543 6.72 42.0663 6.72C43.8156 6.72 45.2449 6.93333 46.3543 7.36C47.4636 7.76533 48.2849 8.43733 48.8183 9.376C49.3516 10.3147 49.6183 11.584 49.6183 13.184V24H47.1863ZM41.5863 24.448C40.3063 24.448 39.1969 24.2347 38.2583 23.808C37.3409 23.36 36.6263 22.72 36.1143 21.888C35.6236 21.056 35.3783 20.0533 35.3783 18.88C35.3783 17.664 35.6449 16.6507 36.1783 15.84C36.7329 15.0293 37.5329 14.4213 38.5783 14.016C39.6236 13.5893 40.8823 13.376 42.3542 13.376H46.9943V15.68H42.2263C40.9889 15.68 40.0396 15.9787 39.3783 16.576C38.7169 17.1733 38.3863 17.9413 38.3863 18.88C38.3863 19.8187 38.7169 20.576 39.3783 21.152C40.0396 21.728 40.9889 22.016 42.2263 22.016C42.9516 22.016 43.6449 21.888 44.3063 21.632C44.9676 21.3547 45.5116 20.9067 45.9383 20.288C46.3863 19.648 46.6316 18.7733 46.6743 17.664L47.5063 18.88C47.3996 20.096 47.1009 21.12 46.6103 21.952C46.1409 22.7627 45.4796 23.3813 44.6263 23.808C43.7943 24.2347 42.7809 24.448 41.5863 24.448ZM62.3925 24.576C61.1765 24.576 60.0565 24.352 59.0325 23.904C58.0085 23.456 57.1125 22.8267 56.3445 22.016C55.5978 21.2053 55.0112 20.2667 54.5845 19.2C54.1792 18.1333 53.9765 16.9813 53.9765 15.744V15.168C53.9765 13.952 54.1792 12.8107 54.5845 11.744C54.9898 10.6773 55.5552 9.73867 56.2805 8.928C57.0272 8.11733 57.9018 7.488 58.9045 7.04C59.9285 6.57067 61.0592 6.336 62.2965 6.336C63.5978 6.336 64.7818 6.61333 65.8485 7.168C66.9152 7.70133 67.7898 8.544 68.4725 9.696C69.1552 10.848 69.5392 12.3413 69.6245 14.176L68.3445 12.128V0.639999H71.4165V24H68.9845V16.416H69.8805C69.7952 18.3573 69.3898 19.936 68.6645 21.152C67.9392 22.3467 67.0218 23.2213 65.9125 23.776C64.8245 24.3093 63.6512 24.576 62.3925 24.576ZM62.8085 21.888C63.8538 21.888 64.8032 21.6533 65.6565 21.184C66.5098 20.7147 67.1925 20.0427 67.7045 19.168C68.2165 18.272 68.4725 17.2267 68.4725 16.032V14.56C68.4725 13.3867 68.2058 12.3947 67.6725 11.584C67.1605 10.752 66.4672 10.1227 65.5925 9.696C64.7392 9.248 63.8005 9.024 62.7765 9.024C61.6458 9.024 60.6432 9.29067 59.7685 9.824C58.9152 10.3573 58.2432 11.104 57.7525 12.064C57.2832 13.024 57.0485 14.1547 57.0485 15.456C57.0485 16.7573 57.2938 17.8987 57.7845 18.88C58.2752 19.84 58.9578 20.5867 59.8325 21.12C60.7072 21.632 61.6992 21.888 62.8085 21.888ZM77.319 24V6.912H79.751V13.952H79.623C79.623 11.456 80.167 9.632 81.255 8.48C82.3643 7.30667 84.0177 6.72 86.215 6.72H86.791V9.472H85.703C83.9963 9.472 82.6843 9.93067 81.767 10.848C80.8497 11.744 80.391 13.0453 80.391 14.752V24H77.319ZM100.718 24V18.88H100.206V12.96C100.206 11.7867 99.8962 10.9013 99.2775 10.304C98.6802 9.70667 97.7948 9.408 96.6215 9.408C95.9602 9.408 95.2775 9.41867 94.5735 9.44C93.8695 9.46133 93.1975 9.48267 92.5575 9.504C91.9175 9.52533 91.3628 9.55733 90.8935 9.6V6.912C91.3628 6.86933 91.8535 6.83733 92.3655 6.816C92.8988 6.77333 93.4428 6.752 93.9975 6.752C94.5522 6.73067 95.0855 6.72 95.5975 6.72C97.3468 6.72 98.7762 6.93333 99.8855 7.36C100.995 7.76533 101.816 8.43733 102.35 9.376C102.883 10.3147 103.15 11.584 103.15 13.184V24H100.718ZM95.1175 24.448C93.8375 24.448 92.7282 24.2347 91.7895 23.808C90.8722 23.36 90.1575 22.72 89.6455 21.888C89.1548 21.056 88.9095 20.0533 88.9095 18.88C88.9095 17.664 89.1762 16.6507 89.7095 15.84C90.2642 15.0293 91.0642 14.4213 92.1095 14.016C93.1548 13.5893 94.4135 13.376 95.8855 13.376H100.526V15.68H95.7575C94.5202 15.68 93.5708 15.9787 92.9095 16.576C92.2482 17.1733 91.9175 17.9413 91.9175 18.88C91.9175 19.8187 92.2482 20.576 92.9095 21.152C93.5708 21.728 94.5202 22.016 95.7575 22.016C96.4828 22.016 97.1762 21.888 97.8375 21.632C98.4988 21.3547 99.0428 20.9067 99.4695 20.288C99.9175 19.648 100.163 18.7733 100.206 17.664L101.038 18.88C100.931 20.096 100.632 21.12 100.142 21.952C99.6722 22.7627 99.0108 23.3813 98.1575 23.808C97.3255 24.2347 96.3122 24.448 95.1175 24.448ZM115.444 24.192C114.164 24.192 113.054 24.0107 112.116 23.648C111.198 23.2853 110.484 22.6667 109.972 21.792C109.481 20.896 109.236 19.6907 109.236 18.176V1.728H112.18V18.56C112.18 19.4773 112.425 20.192 112.916 20.704C113.428 21.1947 114.142 21.44 115.06 21.44H118.068V24.192H115.444ZM106.292 9.216V6.912H118.068V9.216H106.292ZM123.245 24V6.912H126.317V24H123.245ZM120.621 9.344V6.912H126.317V9.344H120.621ZM124.109 4.16C123.426 4.16 122.914 3.97867 122.573 3.616C122.253 3.25333 122.093 2.79467 122.093 2.24C122.093 1.68533 122.253 1.22667 122.573 0.863998C122.914 0.501333 123.426 0.32 124.109 0.32C124.791 0.32 125.293 0.501333 125.613 0.863998C125.954 1.22667 126.125 1.68533 126.125 2.24C126.125 2.79467 125.954 3.25333 125.613 3.616C125.293 3.97867 124.791 4.16 124.109 4.16ZM144.033 24L137.601 16.032H134.785L142.625 6.912H145.857L138.753 15.136L138.977 13.504L147.585 24H144.033ZM132.257 24V0.639999H135.329V24H132.257Z" fill="white"/>
<path d="M162.344 24L156.52 15.872H153.928L161.32 6.624H165.96L159.144 15.168L159.24 12.928L167.368 24H162.344ZM150.184 24V0.639999H154.632V24H150.184Z" fill="#F13024"/>
</g>
<defs>
<filter id="filter0_i_1_5" x="0.944" y="0.320007" width="166.424" height="28.256" filterUnits="userSpaceOnUse" color-interpolation-filters="sRGB">
<feFlood flood-opacity="0" result="BackgroundImageFix"/>
<feBlend mode="normal" in="SourceGraphic" in2="BackgroundImageFix" result="shape"/>
<feColorMatrix in="SourceAlpha" type="matrix" values="0 0 0 0 0 0 0 0 0 0 0 0 0 0 0 0 0 0 127 0" result="hardAlpha"/>
<feOffset dy="4"/>
<feGaussianBlur stdDeviation="2"/>
<feComposite in2="hardAlpha" operator="arithmetic" k2="-1" k3="1"/>
<feColorMatrix type="matrix" values="0 0 0 0 0 0 0 0 0 0 0 0 0 0 0 0 0 0 0.25 0"/>
<feBlend mode="normal" in2="shape" result="effect1_innerShadow_1_5"/>
</filter>
</defs>
</svg>
